<?xml version="1.0" standalone="no"?>
<!DOCTYPE svg PUBLIC "-//W3C//DTD SVG 20010904//EN"
 "http://www.w3.org/TR/2001/REC-SVG-20010904/DTD/svg10.dtd">
<svg version="1.0" xmlns="http://www.w3.org/2000/svg"
 width="256.000000pt" height="256.000000pt" viewBox="0 0 256.000000 256.000000"
 preserveAspectRatio="xMidYMid meet">

<g transform="translate(0.000000,256.000000) scale(0.100000,-0.100000)"
fill="#000000" stroke="none">
<path d="M1125 2310 c-33 -5 -98 -21 -145 -36 -648 -199 -936 -942 -592 -1526
138 -235 364 -402 650 -480 111 -31 373 -31 484 0 396 108 662 374 770 770 31
111 31 373 0 484 -108 396 -380 668 -770 769 -89 23 -302 33 -397 19z m310
-165 c358 -63 647 -352 710 -710 50 -288 -39 -569 -245 -775 -345 -345 -895
-345 -1240 0 -206 206 -295 487 -245 775 83 475 541 793 1020 710z"/>
<path d="M960 1281 l0 -481 80 0 80 0 0 160 0 161 137 -3 137 -3 62 -155 62
-155 81 -3 81 -3 -19 48 c-10 26 -40 102 -67 167 -32 82 -44 121 -36 124 7 2
34 18 59 35 208 140 182 455 -46 561 -43 20 -65 21 -328 24 l-283 3 0 -480z
m566 293 c53 -39 69 -71 69 -134 0 -63 -16 -95 -69 -134 -25 -19 -44 -21 -217
-24 l-189 -3 0 161 0 161 189 -3 c173 -3 192 -5 217 -24z"/>
</g>
</svg>
